<svg width="462" height="154" viewBox="0 0 462 154" fill="none" xmlns="http://www.w3.org/2000/svg">
<g clip-path="url(#clip0_540_222)">
<path d="M7.35464 147.927C2.46944 143.897 0 138.147 0 130.678H11.4883C11.4883 133.849 12.3472 136.32 13.9577 138.362C17.3934 142.285 21.6881 143.359 26.6807 143.359C34.7332 143.359 39.2426 139.705 39.2426 134.655C39.2426 132.29 38.169 130.463 36.0753 129.174C33.9816 127.83 30.1701 126.111 24.587 124.015L23.7281 123.747L22.225 123.156C14.924 120.362 9.66303 117.675 6.4957 115.096C3.32838 112.409 1.82524 108.594 1.82524 103.489C1.82524 97.6326 3.91889 92.8503 8.21357 89.304C12.5083 85.7576 18.4671 83.9307 25.9291 83.9307C40.9605 83.9307 50.8383 91.1309 50.8383 106.552H39.35C39.35 98.1161 33.6059 94.4623 25.8754 94.4623C18.3061 94.4623 13.4209 97.9012 13.4209 102.63C13.4209 105.209 14.3872 107.251 16.3735 108.487C18.3597 109.722 22.225 111.388 27.8617 113.376L29.2038 113.86C32.8543 115.096 35.6995 116.224 37.7932 117.191C39.9942 118.159 42.1952 119.394 44.611 121.006C49.2814 124.177 51.4288 128.368 51.4288 134.063C51.4288 145.831 42.4099 153.891 26.0365 153.891C18.5745 153.891 12.3472 151.849 7.35464 147.927Z" fill="#503694"/>
<path d="M77.2505 116.493H92.765C98.026 116.493 101.945 112.731 101.945 105.961C101.945 99.137 98.026 95.4294 92.765 95.4294H77.2505V116.493ZM65.7622 152.44V85.3813H94.7513C106.508 85.3813 113.594 93.3338 113.594 105.961C113.594 118.588 106.508 126.541 94.7513 126.541H77.2505V152.386H65.7622V152.44Z" fill="#503694"/>
<path d="M135.175 126.272H153.535L144.462 100.695L135.175 126.272ZM115.044 152.44V148.625L138.987 85.3813H150.26L174.203 148.625V152.44H162.929L156.971 135.89H131.686L125.673 152.44H115.044Z" fill="#503694"/>
<path d="M182.846 129.711V108.057C182.846 92.7429 192.348 83.9307 208.882 83.9307C215.969 83.9307 221.82 85.8651 226.491 89.7876C231.161 93.7101 233.577 99.4595 233.577 107.143V108.11H222.089V107.143C222.089 103.006 220.746 99.8356 217.955 97.74C215.163 95.537 212.103 94.4623 208.775 94.4623C199.112 94.4623 194.334 99.1371 194.334 107.304V130.517C194.334 138.684 199.112 143.359 208.775 143.359C212.103 143.359 215.217 142.285 217.955 140.189C220.746 137.986 222.089 134.816 222.089 130.678V129.711H233.577V130.678C233.577 138.362 231.161 144.111 226.491 148.034C221.82 151.956 215.969 153.891 208.882 153.891C192.348 153.891 182.846 145.079 182.846 129.711Z" fill="#503694"/>
<path d="M247.964 152.44V85.3813H290.911V95.4294H259.452V114.021H286.455V123.585H259.452V142.392H291.018V152.44H247.964Z" fill="#503694"/>
<path d="M0 68.5093V1.45068H11.4883V29.8754H39.2426V1.45068H50.7309V68.5093H39.2426V39.9234H11.4883V68.5093H0Z" fill="#503694"/>
<path d="M81.3842 42.3414H99.744L90.6715 16.7646L81.3842 42.3414ZM61.2529 68.5093V64.6943L85.1958 1.45068H96.4693L120.412 64.6943V68.5093H109.139L103.18 51.9596H77.8948L71.8823 68.5093H61.2529Z" fill="#503694"/>
<path d="M142.422 32.9382H157.668C164.755 32.9382 168.298 29.3918 168.298 22.1916C168.298 14.9914 164.755 11.445 157.668 11.445H142.422V32.9382ZM130.934 68.5093V1.45068H159.762C172.807 1.45068 179.947 9.02702 179.947 22.0304C179.947 30.95 175.921 38.0428 168.19 41.3742L180.752 64.6406V68.4556H169.479L155.682 42.6638H142.476V68.4556H130.934V68.5093Z" fill="#503694"/>
<path d="M205.608 58.4613H223.055C229.443 58.4613 232.611 55.3985 232.611 49.273C232.611 42.9325 229.443 39.816 223.055 39.816H205.608V58.4613ZM205.608 30.1978H220.425C226.759 30.1978 229.927 27.0275 229.927 20.7945C229.927 14.5615 226.759 11.4987 220.425 11.4987H205.608V30.1978ZM194.12 68.5093V1.45068H222.357C234.329 1.45068 241.522 7.57623 241.522 19.4512C241.522 26.2753 238.838 30.95 233.47 33.7441C240.556 36.3233 244.099 41.6966 244.099 49.9177C244.099 62.0614 237.12 68.5093 224.934 68.5093H194.12Z" fill="#503694"/>
<path d="M296.762 23.5887C296.762 16.0124 291.501 10.5316 281.946 10.5316C272.39 10.5316 267.129 16.0124 267.129 23.5887V46.3715C267.129 53.9478 272.39 59.3748 281.946 59.3748C291.501 59.3748 296.762 53.8941 296.762 46.3715V23.5887ZM255.587 24.1261C255.587 9.08086 265.733 0 281.892 0C298.051 0 308.197 9.08086 308.197 24.1261V45.7804C308.197 60.8256 298.051 69.9065 281.892 69.9065C265.733 69.9065 255.587 60.8256 255.587 45.7804V24.1261Z" fill="#503694"/>
<path d="M361.88 1.45068H373.369V46.6938C373.369 54.0014 371.06 59.7509 366.497 63.8346C361.988 67.972 355.76 69.9601 348.03 69.9601C340.3 69.9601 334.072 67.972 329.456 63.8346C324.946 59.6971 322.638 53.9477 322.638 46.6938V1.45068H334.126V47.2311C334.126 54.2164 339.119 59.4285 348.03 59.4285C356.941 59.4285 361.934 54.2701 361.934 47.2311V1.45068H361.88Z" fill="#503694"/>
<path d="M401.123 32.9382H416.369C423.455 32.9382 426.998 29.3918 426.998 22.1916C426.998 14.9914 423.455 11.445 416.369 11.445H401.123V32.9382ZM389.635 68.5093V1.45068H418.463C431.508 1.45068 438.648 9.02702 438.648 22.0304C438.648 30.95 434.622 38.0428 426.891 41.3742L439.453 64.6406V68.4556H428.126L414.329 42.6638H401.123V68.4556H389.635V68.5093Z" fill="#503694"/>
<path d="M462 68.5095C462 70.1215 460.712 71.4111 459.101 71.4111C457.491 71.4111 456.202 70.1215 456.202 68.5095C456.202 66.8975 457.491 65.6079 459.101 65.6079C460.658 65.6079 462 66.8975 462 68.5095Z" fill="#503694"/>
</g>
<defs>
<clipPath id="clip0_540_222">
<rect width="462" height="153.891" fill="white"/>
</clipPath>
</defs>
</svg>
