<svg width="288" height="288" viewBox="0 0 288 288" fill="none" xmlns="http://www.w3.org/2000/svg">
<g opacity="0.4" clip-path="url(#clip0_502_1312)">
<path d="M9.17157 15.5355L133.136 139.5H0.5V24.2071L9.17157 15.5355ZM139.5 133.136L15.5355 9.17157L24.2071 0.5H139.5V133.136ZM272.464 9.17157L148.5 133.136V0.5H263.793L272.464 9.17157ZM154.864 139.5L278.828 15.5355L287.5 24.2071V139.5H154.864ZM154.864 148.5H287.5V263.793L278.828 272.464L154.864 148.5ZM148.5 287.5V154.864L272.464 278.828L263.793 287.5H148.5ZM24.2071 287.5L15.5355 278.828L139.5 154.864V287.5H24.2071ZM0.5 148.5H133.136L9.17157 272.464L0.5 263.793V148.5Z" stroke="#643EBF"/>
</g>
<defs>
<clipPath id="clip0_502_1312">
<rect width="288" height="288" fill="white"/>
</clipPath>
</defs>
</svg>
