<svg width="288" height="288" viewBox="0 0 288 288" fill="none" xmlns="http://www.w3.org/2000/svg">
<g opacity="0.4">
<mask id="path-1-inside-1_522_1280" fill="white">
<path fill-rule="evenodd" clip-rule="evenodd" d="M9.17157 14.8284L134.343 140H4V20L9.17157 14.8284ZM14.8284 9.17157L140 134.343V4H20L14.8284 9.17157ZM148 4V134.343L273.172 9.17157L268 4H148ZM278.828 14.8284L153.657 140H284V20L278.828 14.8284ZM284 148H153.657L278.828 273.172L284 268V148ZM273.172 278.828L148 153.657V284H268L273.172 278.828ZM140 284V153.657L14.8284 278.828L20 284H140ZM9.17157 273.172L134.343 148H4V268L9.17157 273.172Z"/>
</mask>
<path d="M134.343 140V141H136.757L135.05 139.293L134.343 140ZM9.17157 14.8284L9.87868 14.1213L9.17157 13.4142L8.46447 14.1213L9.17157 14.8284ZM4 140H3V141H4V140ZM4 20L3.29289 19.2929L3 19.5858V20H4ZM14.8284 9.17157L14.1213 8.46447L13.4142 9.17157L14.1213 9.87868L14.8284 9.17157ZM140 134.343L139.293 135.05L141 136.757V134.343H140ZM140 4H141V3H140V4ZM20 4V3H19.5858L19.2929 3.29289L20 4ZM148 4V3H147V4H148ZM148 134.343H147V136.757L148.707 135.05L148 134.343ZM273.172 9.17157L273.879 9.87868L274.586 9.17157L273.879 8.46446L273.172 9.17157ZM268 4L268.707 3.29289L268.414 3H268V4ZM278.828 14.8284L279.536 14.1213L278.828 13.4142L278.121 14.1213L278.828 14.8284ZM153.657 140L152.95 139.293L151.243 141H153.657V140ZM284 140V141H285V140H284ZM284 20H285V19.5858L284.707 19.2929L284 20ZM284 148H285V147H284V148ZM153.657 148V147H151.243L152.95 148.707L153.657 148ZM278.828 273.172L278.121 273.879L278.828 274.586L279.536 273.879L278.828 273.172ZM284 268L284.707 268.707L285 268.414V268H284ZM273.172 278.828L273.879 279.536L274.586 278.828L273.879 278.121L273.172 278.828ZM148 153.657L148.707 152.95L147 151.243V153.657H148ZM148 284H147V285H148V284ZM268 284V285H268.414L268.707 284.707L268 284ZM140 284V285H141V284H140ZM140 153.657H141V151.243L139.293 152.95L140 153.657ZM14.8284 278.828L14.1213 278.121L13.4142 278.828L14.1213 279.536L14.8284 278.828ZM20 284L19.2929 284.707L19.5858 285H20V284ZM9.17157 273.172L8.46446 273.879L9.17157 274.586L9.87868 273.879L9.17157 273.172ZM134.343 148L135.05 148.707L136.757 147H134.343V148ZM4 148V147H3V148H4ZM4 268H3V268.414L3.29289 268.707L4 268ZM135.05 139.293L9.87868 14.1213L8.46447 15.5355L133.636 140.707L135.05 139.293ZM4 141H134.343V139H4V141ZM5 140V20H3V140H5ZM4.70711 20.7071L9.87868 15.5355L8.46447 14.1213L3.29289 19.2929L4.70711 20.7071ZM14.1213 9.87868L139.293 135.05L140.707 133.636L15.5355 8.46447L14.1213 9.87868ZM141 134.343V4H139V134.343H141ZM20 5H140V3H20V5ZM15.5355 9.87868L20.7071 4.70711L19.2929 3.29289L14.1213 8.46447L15.5355 9.87868ZM147 4V134.343H149V4H147ZM148.707 135.05L273.879 9.87868L272.464 8.46446L147.293 133.636L148.707 135.05ZM267.293 4.70711L272.464 9.87868L273.879 8.46446L268.707 3.29289L267.293 4.70711ZM148 5H268V3H148V5ZM278.121 14.1213L152.95 139.293L154.364 140.707L279.536 15.5355L278.121 14.1213ZM153.657 141H284V139H153.657V141ZM283 20V140H285V20H283ZM278.121 15.5355L283.293 20.7071L284.707 19.2929L279.536 14.1213L278.121 15.5355ZM284 147H153.657V149H284V147ZM152.95 148.707L278.121 273.879L279.536 272.464L154.364 147.293L152.95 148.707ZM283.293 267.293L278.121 272.464L279.536 273.879L284.707 268.707L283.293 267.293ZM283 148V268H285V148H283ZM273.879 278.121L148.707 152.95L147.293 154.364L272.464 279.536L273.879 278.121ZM147 153.657V284H149V153.657H147ZM268 283H148V285H268V283ZM272.464 278.121L267.293 283.293L268.707 284.707L273.879 279.536L272.464 278.121ZM141 284V153.657H139V284H141ZM139.293 152.95L14.1213 278.121L15.5355 279.536L140.707 154.364L139.293 152.95ZM20.7071 283.293L15.5355 278.121L14.1213 279.536L19.2929 284.707L20.7071 283.293ZM140 283H20V285H140V283ZM9.87868 273.879L135.05 148.707L133.636 147.293L8.46446 272.464L9.87868 273.879ZM134.343 147H4V149H134.343V147ZM5 268V148H3V268H5ZM9.87868 272.464L4.70711 267.293L3.29289 268.707L8.46446 273.879L9.87868 272.464Z" fill="#5D35C4" mask="url(#path-1-inside-1_522_1280)"/>
</g>
</svg>
