<svg width="288" height="288" viewBox="0 0 288 288" fill="none" xmlns="http://www.w3.org/2000/svg">
<g opacity="0.4">
<path d="M9.17157 15.5355L133.136 139.5H4.5V20.2071L9.17157 15.5355ZM139.5 133.136L15.5355 9.17157L20.2071 4.5H139.5V133.136ZM272.464 9.17157L148.5 133.136V4.5H267.793L272.464 9.17157ZM154.864 139.5L278.828 15.5355L283.5 20.2071V139.5H154.864ZM154.864 148.5H283.5V267.793L278.828 272.464L154.864 148.5ZM148.5 283.5V154.864L272.464 278.828L267.793 283.5H148.5ZM20.2071 283.5L15.5355 278.828L139.5 154.864V283.5H20.2071ZM4.5 148.5H133.136L9.17157 272.464L4.5 267.793V148.5Z" stroke="#643EBF"/>
</g>
</svg>
